<?xml version="1.0" encoding="utf-8"?>
<!-- Generator: Adobe Illustrator 28.3.0, SVG Export Plug-In . SVG Version: 6.00 Build 0)  -->
<svg version="1.1" id="Calque_1" xmlns="http://www.w3.org/2000/svg" xmlns:xlink="http://www.w3.org/1999/xlink" x="0px" y="0px"
	 viewBox="0 0 1500 466.1" style="enable-background:new 0 0 1500 466.1;" xml:space="preserve">
<style type="text/css">
	
		.st0{clip-path:url(#SVGID_00000062882421401449188710000012175011081092055219_);fill:url(#SVGID_00000128486324732476247490000002076519734251486120_);}
	
		.st1{clip-path:url(#SVGID_00000095340927043134010790000017309687966188478601_);fill:url(#SVGID_00000024722542936347442870000015339185934633329817_);}
	.st2{fill:#B7E4FF;}
</style>
<g>
	<defs>
		<polygon id="SVGID_1_" points="0,0 0,466 1500,0.5 		"/>
	</defs>
	<clipPath id="SVGID_00000067957797652439161040000000121807362609577094_">
		<use xlink:href="#SVGID_1_"  style="overflow:visible;"/>
	</clipPath>
	
		<linearGradient id="SVGID_00000172406885652097382060000006835461951233515394_" gradientUnits="userSpaceOnUse" x1="451.5635" y1="654.3035" x2="453.0284" y2="654.3035" gradientTransform="matrix(1024 0 0 -1024 -462385.0625 670239.75)">
		<stop  offset="0" style="stop-color:#96D9FF"/>
		<stop  offset="0.9862" style="stop-color:#FFFFC6"/>
		<stop  offset="1" style="stop-color:#FFFFC6"/>
	</linearGradient>
	
		<rect style="clip-path:url(#SVGID_00000067957797652439161040000000121807362609577094_);fill:url(#SVGID_00000172406885652097382060000006835461951233515394_);" width="1500" height="466"/>
</g>
<g>
	<defs>
		<polygon id="SVGID_00000155141363077662481730000015797937378155394437_" points="0,-0.1 0,466 751,233 		"/>
	</defs>
	<clipPath id="SVGID_00000180328308064255373340000013712480233439344773_">
		<use xlink:href="#SVGID_00000155141363077662481730000015797937378155394437_"  style="overflow:visible;"/>
	</clipPath>
	
		<linearGradient id="SVGID_00000180368870456989573390000006958880230082038438_" gradientUnits="userSpaceOnUse" x1="451.1172" y1="654.712" x2="452.5841" y2="654.712" gradientTransform="matrix(512 0 0 -512 -230972 335445.4688)">
		<stop  offset="0" style="stop-color:#E52D0F"/>
		<stop  offset="0.9838" style="stop-color:#EC69A4"/>
		<stop  offset="1" style="stop-color:#EC69A4"/>
	</linearGradient>
	
		<rect y="-0.1" style="clip-path:url(#SVGID_00000180328308064255373340000013712480233439344773_);fill:url(#SVGID_00000180368870456989573390000006958880230082038438_);" width="751" height="466.1"/>
</g>
<path class="st2" d="M609.1,234.6h-5.5v35.3h5.5V234.6z M494.5,240H489v29.9h5.5V240z M428,299.3l-13.1,21.2v4.6h19.3v6.1l5.5-1.7
	v-4.5h6.7v-4.9h-6.7V289h-5.5v31.2h-13.5l11-17.8l0.2-0.3L428,299.3z M441.8,269.9h5.5V240h-5.5V269.9z M430.9,206.3h5.5v-29.9h-5.5
	V206.3z M407.6,271.1c11.9,0,21.3-8.8,22.4-20.9l0-0.5h-5.5l0,0.4c-1,9.2-8.2,16-17,16c-8.8,0-16-6.7-17-16l0-0.4H385l0,0.5
	C386.3,263.9,397.3,271.1,407.6,271.1 M331.2,312.7h-5.5l0,0.5C327,326.9,338,334,348.3,334c11.9,0,21.3-8.8,22.4-20.9l0-0.5h-5.5
	l0,0.4c-1,9.2-8.2,16-17,16c-8.8,0-16-6.7-17-16L331.2,312.7z M309.9,300.2c0,2-0.7,4-2,5.6l-14.1,17.4l4.4,3.4l14.1-17.5l0,0
	c2-2.6,3.1-5.5,3.1-8.6c0-7.2-5.6-12.6-13-12.6c-6.7,0-12.1,4.6-13,11.2l0,0.4l4.7,1.5l0.1-0.5c0.6-4.3,4.1-7.6,8.3-7.6
	C306.8,292.8,309.9,295.9,309.9,300.2 M314.6,329.1h-25.7v4.9h25.7V329.1z M224.6,246.2l-4.5,3.2l16.2,21.5l4.5-3.2L224.6,246.2z
	 M233.9,238.1c0,3.1-1.6,5.7-4.2,6.7l-0.5,0.2l2.5,4.5l0.4-0.1c4.5-1.8,7.3-6.2,7.3-11.2c0-7-5.6-12.6-12.7-12.6H221v4.9h5.6
	C231.6,230.4,233.9,234.4,233.9,238.1 M220.1,204.6l-30.5-43.8l-4.5,2.9l30.6,43.8L220.1,204.6z M214,191.9h5.5V162H214V191.9z
	 M191.4,176.5h-5.5v29.9h5.5V176.5z M216.8,225.5h-5.5v44.4h5.5V225.5z M208.5,349.8c0.3-2.1,1.6-3.2,3.3-3.2c1.5,0,2.1,1.1,2.1,1.9
	c0,0.4-0.1,0.7-0.3,0.9c-0.1,0.1-0.5,0.2-0.9,0.3C211.5,349.8,210.2,349.8,208.5,349.8 M205.8,352.6c0,3.3,2.2,5.5,5.8,5.5
	c1.4,0,2.5-0.4,3.6-1.1c1.8-1.2,3.3-3.7,4-6c0.1-0.2-0.1-0.2-0.1,0c-1,3.1-2.8,5-5.5,5c-3,0-5.1-1.9-5.1-4.9c0-0.4,0-0.8,0.1-1.1
	h6.6c1.5,0,1.7-0.3,1.7-0.9c0-1.3-1-2.9-4.1-2.9C209,346.2,205.8,349.3,205.8,352.6 M197.5,357.9c0.7,0,2.5,0,2.8,0
	c0.4,0,2.6,0,2.8,0c0.2,0,0.2-0.2,0-0.2h-1.6v-5.6c0-1.5,0.1-2.4,0.4-2.9c0.3-0.3,0.7-0.4,1.5-0.4h1.1c0.8,0,1.6-1.5,1.6-2
	c0-0.4-0.6-0.6-1.2-0.6c-1,0-1.6,0.4-2.1,1c-0.6,0.6-1.1,1.5-1.3,3v-0.5c0-1.5-0.5-3-1-3.4c-0.1-0.1-0.1-0.1-0.1,0
	c-0.4,0.4-2.4,1.4-2.8,1.6c0,0-0.1,0.1,0,0.1c0.5,0.5,1.1,1.1,1.1,1.7v5.5c0,2.5-0.3,2.5-1.2,2.5
	C197.3,357.7,197.3,357.9,197.5,357.9 M187.8,250.2c6.8,0,12.3-5.5,12.3-12.3c0-6.8-5.5-12.3-12.3-12.3h-6.9v4.9h6.8
	c3.9,0,7,3.2,7,7.4c0,4.2-3,7.4-7,7.4h-6.8v4.9H187.8z M187.8,348.8c0.7-1,1.6-1.6,2.6-1.6c2,0,3.1,2.1,3.1,5.1
	c0,3.4-0.9,5.5-2.8,5.5c-1.4,0-2.3-1.1-2.8-2.1V348.8z M183.4,340.9c1.1-0.2,1.5-0.3,1.5,1.7v15.2c0,0.1,0,0.2,0.1,0.2
	c0.1,0,0.7-0.3,1.6-1.1c0.8,0.7,1.9,1.3,3.3,1.3c3.7,0,6.4-2.7,6.4-7c0-2.7-1.6-4.9-4.3-4.9c-1.6,0-3.1,0.8-4.3,2.4v-9.2
	c0-0.1-0.3-0.2-0.4-0.2c-0.8,0.4-2.8,1.2-3.9,1.4C183.2,340.7,183.2,340.9,183.4,340.9 M164.2,351c-0.1,0.2-0.1,0.4-0.2,0.6v3.5
	c0,2.3-0.2,2.5-1.1,2.5c-0.2,0-0.2,0.2,0,0.2c0.7,0,1.9,0,2.3,0c0.4,0,2.8,0,3,0c0.2,0,0.2-0.2,0-0.2h-1.3V349
	c0.9-1.2,1.6-1.7,2.7-1.7c1.3,0,2.1,0.9,2.1,3.4l0,4.7c0,2.2-0.1,2.3-1.3,2.3c-0.2,0-0.2,0.2,0,0.2c0.7,0,1.7,0,2.1,0
	c0.4,0,3,0,3.2,0s0.2-0.2,0-0.2c-0.9,0-1.2,0-1.2-1.6v-7c0.8-1.1,1.4-1.7,2.7-1.7c1.3,0,2.2,0.9,2.2,3.4v4.7c0,2.2-0.2,2.3-1.3,2.3
	c-0.2,0-0.2,0.2,0,0.2c0.7,0,1.8,0,2.1,0c0.9,0,2.5,0,3.1,0c0.2,0,0.2-0.2,0-0.2c-0.9,0-1.1-0.1-1.1-1.6v-5.2c0-3.3-1.4-4.6-3.6-4.6
	c-1.8,0-3.1,1.1-4.2,2.6c-0.4-1.8-1.8-2.6-3.4-2.6c-1.8,0-3.1,1.1-4.2,2.6c0-1-0.5-2.1-0.9-2.5c-0.1-0.1-0.1-0.1-0.1,0
	c-0.4,0.4-2.4,1.4-2.8,1.6c0,0-0.1,0.1,0,0.1c0.5,0.5,1.1,1.1,1.1,1.7v1.5c0-0.1,0-0.1,0.1-0.2C164.1,350.8,164.3,350.8,164.2,351
	 M153.6,349.8c0.3-2.1,1.6-3.2,3.3-3.2c1.5,0,2.1,1.1,2.1,1.9c0,0.4-0.1,0.7-0.3,0.9c-0.1,0.1-0.5,0.2-0.9,0.3
	C156.6,349.8,155.3,349.8,153.6,349.8 M151.2,354.6C151.2,354.6,151.2,354.6,151.2,354.6c0.7,2.2,2.7,3.5,5.4,3.5
	c1.4,0,2.5-0.4,3.6-1.1c1.7-1.1,3-3.3,3.8-5.4v-0.5c-1,3-2.8,4.8-5.4,4.8c-3,0-5.1-1.9-5.1-4.9c0-0.4,0-0.8,0.1-1.1h6.6
	c1.5,0,1.7-0.3,1.7-0.9c0-1.3-1-2.9-4.1-2.9c-3.7,0-6.9,3.1-6.9,6.4c0,0.6,0.1,1.2,0.3,1.8C151.2,354.4,151.3,354.5,151.2,354.6
	 M142.9,347.8c0,0,0,0.2,0,0.2h1.7v6.8c0,2.2,0.5,3.4,2.2,3.4c1.8,0,3.3-1.9,4.3-3.5c0-0.1,0-0.1-0.1-0.2c-0.1,0-0.1,0-0.2,0.1
	c-0.7,1.4-1.3,2-2.1,2c-1,0-1.5-0.9-1.5-2.5v-6h2.9c0.3-0.2,0.8-1.4,0.8-1.5c0,0-0.3,0-0.5,0h-3.1v-2.3c0-0.2-0.1-0.1-0.2,0
	L142.9,347.8z M171.2,269.9h5.5v-44.4h-5.5V269.9z M108.8,120.2c0.3-2.1,1.6-3.2,3.3-3.2c1.5,0,2.1,1.1,2.1,1.9
	c0,0.4-0.1,0.7-0.3,0.9c-0.1,0.1-0.5,0.2-0.9,0.3C111.8,120.2,110.6,120.2,108.8,120.2 M119.3,121.9c0,0-0.1-0.1-0.1-0.1
	c-1,2.9-2.8,4.6-5.3,4.6c-3,0-5.1-1.9-5.1-4.9c0-0.4,0-0.8,0.1-1.1h6.6c1.5,0,1.7-0.3,1.7-0.9c0-1.3-1-2.9-4.1-2.9
	c-3.7,0-6.9,3.1-6.9,6.4c0,3.3,2.2,5.5,5.8,5.5c1.4,0,2.5-0.4,3.6-1.1C117.2,126.3,118.5,124.1,119.3,121.9 M120.7,118.5
	c0-1,0.9-1.7,2.5-1.7c1.3,0,2.2,0.5,2.9,1.3c0.6,0.7,0.9,1.7,1,2.9c0,0.2,0.2,0.2,0.2,0c0-1.2,0.1-3.2,0.1-3.9c0-0.1,0-0.1-0.2-0.2
	c-1-0.2-2-0.4-3.7-0.4c-2.2,0-4.7,1.3-4.7,3.8c0,0.5,0.2,1,0.4,1.3c0-0.1,0.1-0.2,0.1-0.4c0-0.2,0.2-0.2,0.1,0
	c0,0.2-0.1,0.3-0.2,0.5c0.7,0.9,2,1.4,3.2,1.8c1.7,0.6,3.4,1.1,3.4,2.5c0,1.3-0.9,2.1-2.5,2.1c-1.2,0-2.2-0.6-2.9-1.4
	c-0.7-0.9-1.1-2.1-1.2-3.4c0-0.2-0.1-0.1-0.1,0c0,1.9-0.2,3.6-0.2,4c0,0.2,0,0.3,0.2,0.3c0.9,0.3,1.7,0.7,4.1,0.7
	c2.9,0,4.8-1.8,4.8-4c0-2.1-2-2.8-3.9-3.4C122.3,120.5,120.7,120,120.7,118.5 M136.8,249.6l-17.9-25.2l-4.5,3.2l22.3,31.3l22.3-31.3
	l-4.5-3.2L136.8,249.6z M121.3,240.9h-5.5v28.9h5.5V240.9z M157.7,240.9h-5.5v28.9h5.5V240.9z M133.6,356.4c0-2.7,0-5.5,0-7.6
	c0.7-1,1.6-1.5,2.6-1.5c2,0,3.1,2.1,3.1,5.1c0,3.4-1,5.4-3,5.4C135,357.7,134.2,357.1,133.6,356.4 M130.9,351
	c-0.1,0.2-0.1,0.4-0.2,0.5v9.7c0,2.5-0.1,2.7-1.7,2.7c-0.2,0-0.2,0.2,0,0.2c0.7,0,2.3,0,2.6,0c0.4,0,3.3,0,3.5,0s0.2-0.2,0-0.2h-1.6
	v-6c0.4,0.1,0.8,0.2,1.3,0.2c4.2,0,7.3-2.7,7.3-7c0-2.7-1.6-4.9-4.3-4.9c-1.7,0-3.1,0.8-4.3,2.4v-2.3c0-0.1-0.3-0.2-0.4-0.2
	c-0.8,0.4-2.9,1.4-4.1,1.5c-0.2,0-0.2,0.2,0,0.2c1.3-0.2,1.6-0.1,1.6,1.9v1.5c0,0,0-0.1,0-0.1C130.8,350.8,131,350.8,130.9,351
	 M120.3,349.8c0.3-2.1,1.6-3.2,3.3-3.2c1.5,0,2.1,1.1,2.1,1.9c0,0.4-0.1,0.7-0.3,0.9c-0.1,0.1-0.5,0.2-0.9,0.3
	C123.3,349.8,122,349.8,120.3,349.8 M117.6,352.6c0,3.3,2.2,5.5,5.8,5.5c1.4,0,2.5-0.4,3.6-1.1c1.7-1.1,3.1-3.3,3.8-5.4v-0.5
	c-1,3-2.8,4.8-5.4,4.8c-3,0-5.1-1.9-5.1-4.9c0-0.4,0-0.8,0.1-1.1h6.6c1.5,0,1.7-0.3,1.7-0.9c0-1.3-1-2.9-4.1-2.9
	C120.8,346.2,117.6,349.3,117.6,352.6 M123.6,332.9c0,1.3-0.9,2.1-2.5,2.1c-1.2,0-2.2-0.6-2.9-1.4c-0.7-0.9-1.1-2.1-1.2-3.4
	c0-0.2-0.1-0.1-0.1,0c0,1.9-0.2,3.6-0.2,4c0,0.2,0,0.3,0.2,0.3c0.9,0.3,1.7,0.7,4.1,0.7c2.9,0,4.8-1.8,4.8-4c0-2.1-2-2.8-3.9-3.4
	c-1.7-0.6-3.4-1.1-3.4-2.6c0-1,0.9-1.7,2.5-1.7c1.3,0,2.2,0.5,2.9,1.3c0.6,0.7,0.9,1.7,1,2.9c0,0.2,0.2,0.2,0.2,0
	c0-1.2,0.1-3.2,0.1-3.9c0-0.1,0-0.1-0.2-0.2c-1-0.2-2-0.4-3.7-0.4c-2.2,0-4.7,1.3-4.7,3.8c0,1.9,1.9,2.7,3.8,3.3
	C121.9,330.9,123.6,331.5,123.6,332.9 M116.1,323.9c0-0.4-0.6-0.6-1.2-0.6c-1,0-1.6,0.4-2.1,1c-0.6,0.6-1.1,1.5-1.3,3v-0.5
	c0-1.5-0.5-3-1-3.4c-0.1-0.1-0.1-0.1-0.1,0c-0.4,0.4-2.4,1.4-2.8,1.6c0,0-0.1,0.1,0,0.1c0.5,0.5,1.1,1.1,1.1,1.7v5.5
	c0,2.5-0.3,2.5-1.2,2.5c-0.2,0-0.2,0.2,0,0.2c0.7,0,2.5,0,2.8,0c0.4,0,2.6,0,2.8,0c0.2,0,0.2-0.2,0-0.2h-1.6v-5.6
	c0-1.5,0.1-2.4,0.4-2.9c0.3-0.3,0.7-0.4,1.5-0.4h1.1C115.3,325.9,116.1,324.4,116.1,323.9 M113.4,355c0,1.7-1,2.9-3.3,2.9
	c-3.2,0-5.1-2.6-5.2-6.4c0-0.3-0.2-0.3-0.2,0c0,2.3-0.1,4.6-0.1,5.6c0,0.1,0,0.2,0.2,0.2c1.6,0.4,2.7,0.8,5.3,0.8
	c3.3,0,5.7-2,5.7-4.8c0-2.7-2.5-3.7-5-4.7c-2.3-0.9-4.4-1.7-4.4-3.8c0-1.6,1.1-2.9,3.6-2.9c3.7,0,4.9,2.8,5,6v0.3
	c0,0.3,0.2,0.3,0.2,0V348c0-3.3,0.1-4.9,0.1-5.3c0-0.2-0.1-0.2-0.3-0.3c-1.2-0.3-2.8-0.6-5-0.6c-3.2,0-5.9,1.8-5.9,4.8
	c0,2.7,2.4,3.7,4.8,4.6C111.4,352.1,113.4,352.9,113.4,355 M100,333.7c-1.2,0-1.9-0.9-1.9-2c0-1.4,0.9-2.4,3.1-3.3l1.6-0.7v0.1
	c0,1.6-0.1,3-0.1,3.6C102.3,332.1,101.3,333.7,100,333.7 M102.6,331.8c0,0.4,0,1,0,1.5c0,1.4,0.5,1.9,1.6,1.9c1.5,0,3-2,3.3-2.5
	c0.2-0.3-0.2-0.4-0.3-0.2c-0.3,0.7-0.8,1.4-1.2,1.4c-0.4,0-0.6-0.6-0.6-1.7c0-1.1,0.1-3.4,0.1-4.8c0-3-1.7-4.2-4.4-4.2
	c-1.5,0-3.5,0.8-4.7,1.6c-0.7,0.5-1,1-1,1.5c0,0.4,0.4,0.9,1.3,0.9c0.9,0,1.3-0.2,1.6-0.8c0.3-0.6,0.5-1.7,1-2.3
	c0.3-0.5,0.8-0.7,1.4-0.7c1.4,0,1.9,1,1.9,4l-1.7,0.6c-4.6,1.8-5.8,3.1-5.8,4.6c0,1.4,1.2,2.5,2.9,2.5
	C100.3,335.2,102,333,102.6,331.8 M96.8,269.9h5.5v-28.9h-5.5V269.9z M88.1,126.8c0-2.7,0-5.5,0-7.6c0.7-1,1.6-1.5,2.6-1.5
	c2,0,3,2.1,3,5.1c0,3.4-1,5.4-3,5.4C89.5,128.2,88.7,127.5,88.1,126.8 M85.2,120.1v11.6c0,2.5-0.1,2.7-1.7,2.7c-0.2,0-0.2,0.2,0,0.2
	c0.7,0,2.3,0,2.6,0c0.4,0,3.3,0,3.5,0c0.2,0,0.2-0.2,0-0.2h-1.6v-6c0.4,0.1,0.8,0.2,1.3,0.2c4.2,0,7.3-2.7,7.3-7
	c0-2.7-1.6-4.9-4.3-4.9c-1.7,0-3.1,0.8-4.3,2.4v-2.3c0-0.1-0.3-0.2-0.4-0.2c-0.8,0.4-2.9,1.4-4.1,1.5c-0.2,0-0.2,0.2,0,0.2
	C85,118,85.2,118.1,85.2,120.1 M77.3,319.9c0.3,0.3,0.4,0.8,0.4,1.3c0,1.3,0,5.2,0,7.8c0,5.4-0.7,5.7-1.7,5.7h-0.1
	c-0.2,0-0.2,0.2,0,0.2c0.6,0,1.4-0.1,1.7-0.1c0.3,0,2.5,0.1,3.2,0.1c0.2,0,0.2-0.2,0-0.2h-0.3c-1.1,0-2.6-0.4-2.6-5.7l0-8.4l5.6,9.6
	c0.1,0.2,0.2,0.3,0.3,0.3H84c0.1,0,0.2-0.2,0.5-0.7l5.1-8.6c0.3-0.5,0.4-0.6,0.5-0.6c0.1,0,0.1,0.1,0.1,0.3v8.2
	c0,5.6-0.1,5.7-1.4,5.7h-0.4c-0.2,0-0.2,0.2,0,0.2c0.6,0,2.4-0.1,2.7-0.1c0.3,0,2.8,0.1,3.4,0.1c0.2,0,0.2-0.2,0-0.2h-0.2
	c-1.1,0-1.2-0.1-1.2-5.2v-5c0-5.1,0.1-5.3,1.2-5.3h0.3c0.2,0,0.2-0.2,0-0.2c-1.6,0-3-0.1-3.5-0.1c-0.3,0-0.6,0.2-0.8,0.6
	c-0.2,0.3-0.5,1-0.8,1.6l-3.9,6.7l-4.2-7.1c-0.4-0.7-0.7-1.3-0.9-1.7c-0.1-0.2-0.1-0.2-0.3-0.2c-0.2,0-1.3,0.2-4.2,0.2
	c-0.2,0-0.2,0.2,0,0.2H76C76.6,319.3,77,319.5,77.3,319.9 M87.8,374.4c1.9-2.2,3.3-3.8,5-5.7v5.7H87.8z M86.8,375.2
	c-0.5,0.6-0.3,1.1,0,1.1c0.4,0,1.1,0,2.2,0h3.8v1.9c0,2.4-0.1,2.5-2.1,2.5c-0.1,0-0.1,0.2,0,0.2c0.7,0,3.1,0,3.5,0s2.7,0,3.4,0
	c0.1,0,0.1-0.2,0-0.2c-2,0-2.1-0.1-2.1-2.6v-1.8H98c0.8,0,1.2,0,1.3-0.1c0.1-0.2,0.3-1.5,0.7-3.7l0.3-1.5c0-0.2-0.2-0.2-0.3,0
	l-0.1,0.8c-0.3,1.9-1.3,2.7-3.3,2.7h-1v-6.8c0-0.6,0.3-1,0.5-1.4c1.2-1.4,0-1.8-1.1-1.6c-0.4,0.1-0.6,0.3-0.8,0.6
	C91.5,369.1,89.5,371.8,86.8,375.2 M85.8,356.9c-0.1,0.1,0,0.6,0,1c0.3,0,2.5-0.1,4-0.1c1.1,0,5.5,0,6.1,0c0.7,0,0.9,0,1.1-0.1
	c0.1-0.2,0.4-2.2,0.7-4.2l0.3-1.7c0-0.2-0.3-0.2-0.3,0l-0.1,0.9c-0.2,1.8-1.2,2.6-2.8,2.7c-1.4,0-4,0-6.4,0c1-0.9,2-1.9,3.5-3.2
	c3.9-3.5,5.6-5,5.6-7c0-2.3-2-3.7-5.4-3.7c-1.8,0-3.1,0.3-5.5,1c-0.3,0.1-0.3,0.3-0.3,0.5c0,0.5,0.5,3.5,0.5,6.1
	c0,0.2,0.2,0.2,0.2,0c0-2.2,0.2-3.8,0.9-5.1c0.8-1.6,2-2.2,3.7-2.2c2,0,2.9,1.3,2.9,3.7c0,2.9-1.1,4.8-3.9,7.5
	C89.2,354.1,88,355.2,85.8,356.9 M73.7,379.9c-0.1,0.1,0,0.6,0,1c0.3,0,2.5-0.1,4-0.1c1.1,0,5.5,0,6.1,0c0.7,0,0.9,0,1.1-0.1
	c0.1-0.2,0.4-2.2,0.7-4.2l0.3-1.7c0-0.2-0.3-0.2-0.3,0l-0.1,0.9c-0.2,1.8-1.2,2.6-2.8,2.7c-1.4,0-4,0-6.4,0c1-0.9,2-1.9,3.5-3.2
	c3.9-3.5,5.6-5,5.6-7c0-2.3-2-3.7-5.4-3.7c-1.8,0-3.1,0.3-5.5,1c-0.3,0.1-0.3,0.3-0.3,0.5c0,0.5,0.5,3.5,0.5,6.1
	c0,0.2,0.2,0.2,0.2,0c0-2.2,0.2-3.8,0.9-5.1c0.8-1.6,2-2.2,3.7-2.2c2,0,2.9,1.3,2.9,3.7c0,2.9-1.1,4.8-3.9,7.5
	C77.1,377.1,75.9,378.1,73.7,379.9 M72.5,356.9c-0.1,0.1,0,0.6,0,1c0.3,0,2.5-0.1,4-0.1c1.1,0,5.5,0,6.1,0c0.7,0,0.9,0,1.1-0.1
	c0.1-0.2,0.4-2.2,0.7-4.2l0.3-1.7c0-0.2-0.3-0.2-0.3,0l-0.1,0.9c-0.2,1.8-1.2,2.6-2.8,2.7c-1.4,0-4,0-6.4,0c1-0.9,2-1.9,3.5-3.2
	c3.9-3.5,5.6-5,5.6-7c0-2.3-2-3.7-5.4-3.7c-1.8,0-3.1,0.3-5.5,1c-0.3,0.1-0.3,0.3-0.3,0.5c0,0.5,0.5,3.5,0.5,6.1
	c0,0.2,0.2,0.2,0.2,0c0-2.2,0.2-3.8,0.9-5.1c0.8-1.6,2-2.2,3.7-2.2c2,0,2.9,1.3,2.9,3.7c0,2.9-1.1,4.8-3.9,7.5
	C75.9,354.1,74.7,355.2,72.5,356.9 M61.2,372.2c0-2.5,0.3-4.3,0.8-5.6c0.7-0.3,1.6-0.5,2.7-0.5c3.4,0,4.8,2.4,4.8,7.7
	c0,1.9-0.2,3.6-0.8,5.5c-0.7,0.2-1.7,0.4-2.6,0.4C62.8,379.6,61.2,376.9,61.2,372.2 M61.6,366.5c-2,1.9-3.3,4.4-3.3,7.4
	c0,4.6,2.3,7.2,6.2,7.2c1.4,0,3-0.7,4.6-1.8c1.9-1.9,3.3-4.4,3.3-7.4c0-4.5-2.1-7.2-6.1-7.2C64.9,364.7,63.3,365.4,61.6,366.5
	 M66.7,332.5c-1.4,0-4,0-6.4,0c1-0.9,2-1.9,3.5-3.2c3.9-3.5,5.6-5,5.6-7c0-2.3-2-3.7-5.4-3.7c-1.8,0-3.1,0.3-5.5,1
	c-0.3,0.1-0.3,0.3-0.3,0.5c0,0.5,0.5,3.5,0.5,6.1c0,0.2,0.2,0.2,0.2,0c0-2.2,0.2-3.8,0.9-5.1c0.8-1.6,2-2.2,3.7-2.2
	c2,0,2.9,1.3,2.9,3.7c0,2.9-1.1,4.8-3.9,7.5c-1.1,1-2.2,2-4.5,3.8c-0.1,0.1,0,0.6,0,1c0.3,0,2.5-0.1,4-0.1c1.1,0,5.5,0,6.1,0
	c0.7,0,0.9,0,1.1-0.1c0.1-0.2,0.4-2.2,0.7-4.2l0.3-1.7c0-0.2-0.3-0.2-0.3,0l-0.1,0.9C69.2,331.6,68.3,332.5,66.7,332.5 M60.8,122.4
	v-4c0-5.6,0.1-5.7,1.2-5.7h0.5c0.2,0,0.2-0.2,0-0.2c-0.6,0-3.4,0.1-3.7,0.1c-0.3,0-2-0.1-2.7-0.1c-0.2,0-0.2,0.2,0,0.2h0.5
	c1.1,0,1.2,0.1,1.2,5.7v4c0,5.6-0.1,5.7-1.2,5.7h-0.5c-0.2,0-0.2,0.2,0,0.2c0.6,0,2.3-0.1,2.7-0.1c0.3,0,3.1,0.1,3.7,0.1
	c0.2,0,0.2-0.2,0-0.2H62C60.9,128.1,60.8,128,60.8,122.4 M65,351.8c-0.8,0.1-6.1,0.2-9.5,0.2c-3.4,0-9.5-0.1-10.2-0.2
	c-0.1,0.1-0.1,0.6,0,0.7c0.7-0.1,6.7-0.2,10.2-0.2c3.4,0,8.6,0.1,9.5,0.2C65.2,352.3,65.1,351.9,65,351.8 M44.6,379.9
	c-0.1,0.1,0,0.6,0,1c0.3,0,2.5-0.1,4-0.1c1.1,0,5.5,0,6.1,0c0.7,0,0.9,0,1.1-0.1c0.1-0.2,0.4-2.2,0.7-4.2l0.3-1.7
	c0-0.2-0.3-0.2-0.3,0l-0.1,0.9c-0.2,1.8-1.2,2.6-2.8,2.7c-1.4,0-4,0-6.4,0c1-0.9,2-1.9,3.5-3.2c3.9-3.5,5.6-5,5.6-7
	c0-2.3-2-3.7-5.4-3.7c-1.8,0-3.1,0.3-5.5,1c-0.3,0.1-0.3,0.3-0.3,0.5c0,0.5,0.5,3.5,0.5,6.1c0,0.2,0.2,0.2,0.2,0
	c0-2.2,0.2-3.8,0.9-5.1c0.8-1.6,2-2.2,3.7-2.2c2,0,2.9,1.3,2.9,3.7c0,2.9-1.1,4.8-3.9,7.5C48,377.1,46.8,378.1,44.6,379.9
	 M47.6,109.7c-0.8,0.4-2.8,1.1-3.9,1.3c-0.2,0-0.2,0.2,0,0.2c1.1-0.2,1.5-0.2,1.5,1.8v12.6c0,2.2-0.1,2.5-1.1,2.5
	c-0.2,0-0.2,0.2,0,0.2c0.7,0,2.5,0,2.9,0c0.3,0,1.7,0,2.4,0c0.2,0,0.2-0.2,0-0.2c-1.1,0-1.3-0.1-1.3-2.5v-15.8
	C48,109.7,47.7,109.6,47.6,109.7 M53.9,105.1H53c-1.7,0-1.9-1.1-1.9-5.8V80.8c0-0.1-0.5-0.4-0.6-0.2c-1.2,1-3.8,2.3-6.6,3
	c-0.2,0.1-0.1,0.5,0.1,0.4c2.3-0.7,2.7-0.3,2.7,1.7v13.7c0,4.7-0.2,5.8-1.8,5.8H44c-0.2,0-0.2,0.3,0,0.3c1.2,0,4.5-0.1,5.2-0.1
	c0.6,0,3.5,0.1,4.7,0.1C54.1,105.4,54.1,105.1,53.9,105.1 M54.5,114.8c0-1.4-0.8-2.5-2.3-2.5c-1.1,0-1.7,0.7-1.7,1.6
	c0,0.9,0.5,1.4,1.5,1.7c0.9,0.2,1.6,0.3,1.6,0.9c0,0.8-1,1.3-2.2,1.5c-0.2,0-0.2,0.3,0,0.3C53.2,117.9,54.5,116.8,54.5,114.8
	 M56,322.4c0-2.3-2-3.7-5.4-3.7c-1.8,0-3.1,0.3-5.5,1c-0.3,0.1-0.3,0.3-0.3,0.5c0,0.5,0.5,3.5,0.5,6.1c0,0.2,0.2,0.2,0.2,0
	c0-2.2,0.2-3.8,0.9-5.1c0.8-1.6,2-2.2,3.7-2.2c2,0,2.9,1.3,2.9,3.7c0,2.9-1.1,4.8-3.9,7.5c-1.1,1-2.2,2-4.5,3.8c-0.1,0.1,0,0.6,0,1
	c0.3,0,2.5-0.1,4-0.1c1.1,0,5.5,0,6.1,0c0.7,0,0.9,0,1.1-0.1c0.1-0.2,0.4-2.2,0.7-4.2l0.3-1.7c0-0.2-0.3-0.2-0.3,0l-0.1,0.9
	c-0.2,1.8-1.2,2.6-2.8,2.7c-1.4,0-4,0-6.4,0c1-0.9,2-1.9,3.5-3.2C54.4,325.9,56,324.4,56,322.4 M64.9,90.7c-2,0-3.6,0.7-5.8,2.3
	l0.7-8.6h6.8c3.4,0,4.2,0.7,4,3.8l-0.1,1.6c0,0.2,0.4,0.2,0.4,0l0.1-1.6c0.1-2.1,0.7-6.4,0.8-7c0-0.1-0.5-0.2-1.5-0.2h-5.7
	c-2,0-4.7-0.1-5.7-0.1c-0.6,0-3,2-3,2.5l0.2,11c0,0.2,0.8,0.4,1,0.3c2.1-1.6,3.4-2.4,5.2-2.4c3.4,0,5.7,2.4,5.7,5.9
	c0,3.6-2.4,6.5-7.3,6.5c-1.4,0-3.1-0.4-4.4-0.8c-0.2-0.1-0.5,0.2,0,0.4c1.7,0.7,4.4,1.5,6.8,1.5c5.6,0,9.5-3.6,9.5-8.2
	C72.5,93.5,69.7,90.7,64.9,90.7 M74.6,119.2c-0.4-1.8-1.8-2.6-3.4-2.6c-1.8,0-3.1,1.1-4.2,2.6c0-1-0.5-2.1-0.9-2.5
	c-0.1-0.1-0.1-0.1-0.1,0c-0.4,0.4-2.4,1.4-2.8,1.6c0,0-0.1,0.1,0,0.1c0.5,0.5,1.1,1.1,1.1,1.7v5.5c0,2.3-0.2,2.5-1.1,2.5
	c-0.2,0-0.2,0.2,0,0.2c0.7,0,1.9,0,2.3,0c0.4,0,2.8,0,3,0c0.2,0,0.2-0.2,0-0.2h-1.3v-8.6c0.9-1.2,1.6-1.7,2.7-1.7
	c1.3,0,2.1,0.9,2.1,3.4l0,4.7c0,2.2-0.1,2.3-1.3,2.3c-0.2,0-0.2,0.2,0,0.2c0.7,0,1.7,0,2.1,0c0.4,0,3,0,3.2,0c0.2,0,0.2-0.2,0-0.2
	c-0.9,0-1.2,0-1.2-1.6v-7c0.8-1.1,1.4-1.7,2.7-1.7c1.3,0,2.2,0.9,2.2,3.4v4.7c0,2.2-0.2,2.3-1.3,2.3c-0.2,0-0.2,0.2,0,0.2
	c0.7,0,1.8,0,2.1,0c0.9,0,2.5,0,3.1,0c0.2,0,0.2-0.2,0-0.2c-0.9,0-1.1-0.1-1.1-1.6v-5.2c0-3.3-1.4-4.6-3.6-4.6
	C77,116.6,75.7,117.8,74.6,119.2 M92.3,94.4c0,3-0.3,5.6-1.2,8.5c-1,0.4-2.6,0.6-4,0.6c-5,0-7.6-4.2-7.6-11.5c0-3.9,0.4-6.6,1.2-8.7
	c1.1-0.5,2.5-0.7,4.2-0.7C90.1,82.6,92.3,86.2,92.3,94.4 M91.6,103c3-3,5.1-6.7,5.1-11.4c0-7-3.2-11.1-9.4-11.1
	c-2.2,0-4.7,1.1-7.3,2.8c-3,2.9-5.1,6.8-5.1,11.4c0,7.1,3.6,11.1,9.6,11.1C86.7,105.7,89.1,104.7,91.6,103 M102.3,225.5h-5.5v11.2
	h5.5V225.5z M103.1,117.6c-0.6,0.6-1.1,1.5-1.3,3v-0.5c0-1.5-0.5-3-1-3.4c-0.1-0.1-0.1-0.1-0.1,0c-0.4,0.4-2.4,1.4-2.8,1.6
	c0,0-0.1,0.1,0,0.1c0.5,0.5,1.1,1.1,1.1,1.7v5.5c0,2.5-0.3,2.5-1.2,2.5c-0.2,0-0.2,0.2,0,0.2c0.7,0,2.5,0,2.8,0c0.4,0,2.6,0,2.8,0
	c0.2,0,0.2-0.2,0-0.2h-1.6v-5.6c0-1.5,0.1-2.4,0.4-2.9c0.3-0.3,0.7-0.4,1.5-0.4h1.1c0.8,0,1.6-1.5,1.6-2c0-0.4-0.6-0.6-1.2-0.6
	C104.3,116.6,103.6,117,103.1,117.6 M110.7,98.1c0,1.6-0.1,3-0.1,3.6c-0.3,0.8-1.3,2.4-2.6,2.4c-1.2,0-1.9-0.9-1.9-2
	c0-1.4,0.9-2.4,3.1-3.3L110.7,98.1L110.7,98.1z M115.2,102.9c-0.3,0.7-0.8,1.4-1.2,1.4c-0.4,0-0.6-0.6-0.6-1.7
	c0-1.1,0.1-3.4,0.1-4.8c0-3-1.7-4.2-4.4-4.2c-1.5,0-3.5,0.8-4.7,1.6c-0.7,0.5-1,1-1,1.5c0,0.4,0.4,0.9,1.3,0.9
	c0.9,0,1.3-0.2,1.6-0.8c0.3-0.6,0.5-1.7,1-2.3c0.3-0.5,0.8-0.7,1.4-0.7c1.4,0,1.9,1,1.9,4l-1.7,0.6c-4.6,1.8-5.8,3.1-5.8,4.6
	c0,1.4,1.2,2.5,2.9,2.5c2.2,0,3.9-2.2,4.5-3.5c0,0.4,0,1,0,1.5c0,1.4,0.5,1.9,1.6,1.9c1.5,0,3-2,3.3-2.5
	C115.6,102.8,115.3,102.7,115.2,102.9 M128.3,105.2c-0.7,0-1-0.1-1-2v-4.8c0-3.3-1.4-4.6-3.6-4.6c-1.8,0-3.1,1.1-4.2,2.6
	c0-1-0.5-2.1-0.9-2.5c-0.1-0.1-0.1-0.1-0.1,0c-0.4,0.4-2.4,1.4-2.8,1.6c0,0-0.1,0.1,0,0.1c0.5,0.5,1.1,1.1,1.1,1.7v5.5
	c0,2.2-0.2,2.5-1.1,2.5c-0.2,0-0.2,0.2,0,0.2c0.7,0,1.9,0,2.2,0c0.4,0,2.7,0,2.9,0c0.2,0,0.2-0.2,0-0.2h-1.2v-8.7
	c0.9-1.2,1.7-1.7,2.7-1.7c1.3,0,2.2,0.9,2.2,3.4l0,4.8c0,2-0.3,2.2-1.2,2.2c-0.2,0-0.2,0.2,0,0.2c0.7,0,1.6,0,1.9,0
	c0.4,0,2.9,0,3.1,0S128.5,105.2,128.3,105.2 M136.4,126.2c0,1.3-0.9,2.1-2.5,2.1c-1.2,0-2.2-0.6-2.9-1.4c-0.7-0.9-1.1-2.1-1.2-3.4
	c0-0.2-0.1-0.1-0.1,0c0,1.9-0.2,3.6-0.2,4c0,0.2,0,0.3,0.2,0.3c0.9,0.3,1.7,0.7,4.1,0.7c2.9,0,4.8-1.8,4.8-4c0-2.1-2-2.8-3.9-3.4
	c-1.7-0.6-3.4-1.1-3.4-2.6c0-1,0.9-1.7,2.5-1.7c1.3,0,2.2,0.5,2.9,1.3c0.6,0.7,0.9,1.7,1,2.9c0,0.2,0.2,0.2,0.2,0
	c0-1.2,0.1-3.2,0.1-3.9c0-0.1,0-0.1-0.2-0.2c-1-0.2-2-0.4-3.7-0.4c-2.2,0-4.7,1.3-4.7,3.8c0,1.9,1.9,2.7,3.8,3.3
	C134.7,124.3,136.4,124.8,136.4,126.2 M131.3,95.6c0-1,0.9-1.7,2.5-1.7c1.3,0,2.2,0.5,2.9,1.3c0.6,0.7,0.9,1.7,1,2.9
	c0,0.2,0.2,0.2,0.2,0c0-1.2,0.1-3.2,0.1-3.9c0-0.1,0-0.1-0.2-0.2c-1-0.2-2-0.4-3.7-0.4c-2.2,0-4.7,1.3-4.7,3.8
	c0,1.9,1.9,2.7,3.8,3.3c1.7,0.6,3.4,1.1,3.4,2.5c0,1.3-0.9,2.1-2.5,2.1c-1.2,0-2.2-0.6-2.9-1.4c-0.7-0.9-1.1-2.1-1.2-3.4
	c0-0.2-0.1-0.1-0.1,0c0,1.9-0.2,3.6-0.2,4c0,0.2,0,0.3,0.2,0.3c0.9,0.3,1.7,0.7,4.1,0.7c2.9,0,4.8-1.8,4.8-4c0-2.1-2-2.8-3.9-3.4
	C132.9,97.6,131.3,97,131.3,95.6 M143.7,113c0-1-0.8-1.9-1.9-1.9c-1,0-1.9,0.8-1.9,1.9c0,1,0.8,1.9,1.9,1.9
	C142.8,114.9,143.7,114,143.7,113 M144.7,128.1c-1.3,0-1.4-0.3-1.4-2.3v-9c0-0.1-0.3-0.2-0.4-0.2c-0.9,0.5-2.7,1.3-3.9,1.5
	c-0.2,0-0.1,0.2,0.1,0.2c1.1-0.3,1.4-0.2,1.4,1.6v5.9c0,2-0.1,2.3-1.4,2.3c-0.2,0-0.2,0.2,0,0.2c0.7,0,2.5,0,2.8,0s2.1,0,2.7,0
	C144.9,128.3,144.9,128.1,144.7,128.1 M153.4,102.9c-0.8,1-1.6,1.6-2.7,1.6c-2,0-3.1-2.2-3.1-5.1c0-3.7,0.9-5.4,2.9-5.4
	c1.3,0,2.3,1.1,2.9,2.1V102.9z M157.4,105.2c-1.1,0-1.2-0.3-1.2-2.5V86.9c0-0.1-0.4-0.2-0.5-0.2c-0.8,0.4-2.7,1.3-3.9,1.5
	c-0.2,0-0.2,0.2,0,0.2c1.1-0.2,1.5-0.2,1.5,1.8v4c-0.6-0.3-1.4-0.6-2.2-0.6c-3.5,0-6.5,2.7-6.5,7c0,2.7,1.6,4.9,4.3,4.9
	c1.7,0,3.1-0.8,4.4-2.4c0,1.2-0.2,2.1-0.2,2.2c0,0.2,0.1,0.3,0.3,0.2c0.8-0.2,2.5-0.2,3.9-0.2C157.6,105.4,157.6,105.2,157.4,105.2
	 M154.8,122.8c0,3.4-0.7,5.5-2.8,5.5c-2.3,0-3.2-3-3.2-5.9c0-3.3,0.6-5.6,2.9-5.6C153.9,116.8,154.8,119.9,154.8,122.8 M158,122.4
	c0-3.5-2.5-5.8-6-5.8c-3.8,0-6.4,2.9-6.4,6.2c0,3.5,2.5,5.7,6,5.7C155.4,128.5,158,125.4,158,122.4 M161,97.3
	c0.3-2.1,1.6-3.2,3.3-3.2c1.5,0,2.1,1.1,2.1,2c0,0.4-0.1,0.7-0.3,0.9c-0.1,0.1-0.5,0.2-0.9,0.3C164,97.2,162.8,97.3,161,97.3
	 M171.7,98.5c0.1-0.2-0.1-0.2-0.1,0c-1,3.1-2.8,5-5.5,5c-3,0-5.1-1.9-5.1-4.9c0-0.4,0-0.8,0.1-1.1h6.6c1.5,0,1.7-0.3,1.7-0.9
	c0-1.3-1-2.9-4.1-2.9c-3.7,0-6.9,3.1-6.9,6.4c0,3.3,2.2,5.5,5.8,5.5c1.4,0,2.5-0.4,3.6-1.1C169.5,103.3,171,100.8,171.7,98.5
	 M171.9,128.1c-0.7,0-1-0.1-1-2v-4.8c0-3.3-1.4-4.6-3.6-4.6c-1.8,0-3.1,1.1-4.2,2.6c0-1-0.5-2.1-0.9-2.5c-0.1-0.1-0.1-0.1-0.1,0
	c-0.4,0.4-2.4,1.4-2.8,1.6c0,0-0.1,0.1,0,0.1c0.5,0.5,1.1,1.1,1.1,1.7v5.5c0,2.2-0.2,2.5-1.1,2.5c-0.2,0-0.2,0.2,0,0.2
	c0.7,0,1.9,0,2.2,0c0.4,0,2.7,0,2.9,0c0.2,0,0.2-0.2,0-0.2h-1.2v-8.7c0.9-1.2,1.7-1.7,2.7-1.7c1.3,0,2.2,0.9,2.2,3.4l0,4.8
	c0,2-0.3,2.2-1.2,2.2c-0.2,0-0.2,0.2,0,0.2c0.7,0,1.6,0,1.9,0c0.4,0,2.9,0,3.1,0S172.1,128.1,171.9,128.1 M185.6,128.1
	c-0.7,0-1-0.1-1-2v-4.8c0-3.3-1.4-4.6-3.6-4.6c-1.8,0-3.1,1.1-4.2,2.6c0-1-0.5-2.1-0.9-2.5c-0.1-0.1-0.1-0.1-0.1,0
	c-0.4,0.4-2.4,1.4-2.8,1.6c0,0-0.1,0.1,0,0.1c0.5,0.5,1.1,1.1,1.1,1.7v5.5c0,2.2-0.2,2.5-1.1,2.5c-0.2,0-0.2,0.2,0,0.2
	c0.7,0,1.9,0,2.2,0c0.4,0,2.7,0,2.9,0c0.2,0,0.2-0.2,0-0.2h-1.2v-8.7c0.9-1.2,1.7-1.7,2.7-1.7c1.3,0,2.2,0.9,2.2,3.4l0,4.8
	c0,2-0.3,2.2-1.2,2.2c-0.2,0-0.2,0.2,0,0.2c0.7,0,1.6,0,1.9,0c0.4,0,2.9,0,3.1,0C185.8,128.3,185.8,128.1,185.6,128.1 M190.7,113
	c0-1-0.8-1.9-1.9-1.9c-1,0-1.9,0.8-1.9,1.9c0,1,0.8,1.9,1.9,1.9C189.9,114.9,190.7,114,190.7,113 M191.7,128.1
	c-1.3,0-1.4-0.3-1.4-2.3v-9c0-0.1-0.3-0.2-0.4-0.2c-0.9,0.5-2.7,1.3-3.9,1.5c-0.2,0-0.1,0.2,0.1,0.2c1.1-0.3,1.4-0.2,1.4,1.6v5.9
	c0,2-0.1,2.3-1.4,2.3c-0.2,0-0.2,0.2,0,0.2c0.7,0,2.5,0,2.8,0c0.3,0,2.1,0,2.7,0C191.9,128.3,191.9,128.1,191.7,128.1 M194.6,118.5
	c0-1,0.9-1.7,2.5-1.7c1.3,0,2.2,0.5,2.9,1.3c0.6,0.7,0.9,1.7,1,2.9c0,0.2,0.2,0.2,0.2,0c0-1.2,0.1-3.2,0.1-3.9c0-0.1,0-0.1-0.2-0.2
	c-1-0.2-2-0.4-3.7-0.4c-2.2,0-4.7,1.3-4.7,3.8c0,1.9,1.9,2.7,3.8,3.3c1.7,0.6,3.4,1.1,3.4,2.5c0,1.3-0.9,2.1-2.5,2.1
	c-1.2,0-2.2-0.6-2.9-1.4c-0.7-0.9-1.1-2.1-1.2-3.4c0-0.2-0.1-0.1-0.1,0c0,1.9-0.2,3.6-0.2,4c0,0.2,0,0.3,0.2,0.3
	c0.9,0.3,1.7,0.7,4.1,0.7c2.9,0,4.8-1.8,4.8-4c0-2.1-2-2.8-3.9-3.4C196.2,120.5,194.6,120,194.6,118.5 M223.2,128.1
	c-0.9,0-1.1-0.1-1.1-1.6v-5.2c0-3.3-1.4-4.6-3.6-4.6c-1.8,0-3.1,1.1-4.2,2.6c-0.4-1.8-1.8-2.6-3.4-2.6c-1.8,0-3.1,1.1-4.2,2.6
	c0-1-0.5-2.1-0.9-2.5c-0.1-0.1-0.1-0.1-0.1,0c-0.4,0.4-2.4,1.4-2.8,1.6c0,0-0.1,0.1,0,0.1c0.5,0.5,1.1,1.1,1.1,1.7v5.5
	c0,2.3-0.2,2.5-1.1,2.5c-0.2,0-0.2,0.2,0,0.2c0.7,0,1.9,0,2.3,0c0.4,0,2.8,0,3,0s0.2-0.2,0-0.2h-1.3v-8.6c0.9-1.2,1.6-1.7,2.7-1.7
	c1.3,0,2.1,0.9,2.1,3.4l0,4.7c0,2.2-0.1,2.3-1.3,2.3c-0.2,0-0.2,0.2,0,0.2c0.7,0,1.7,0,2.1,0c0.4,0,3,0,3.2,0s0.2-0.2,0-0.2
	c-0.9,0-1.2,0-1.2-1.6v-7c0.8-1.1,1.4-1.7,2.7-1.7c1.3,0,2.2,0.9,2.2,3.4v4.7c0,2.2-0.2,2.3-1.3,2.3c-0.2,0-0.2,0.2,0,0.2
	c0.7,0,1.8,0,2.1,0c0.9,0,2.5,0,3.1,0C223.4,128.3,223.4,128.1,223.2,128.1 M226.8,120.2c0.3-2.1,1.6-3.2,3.3-3.2
	c1.5,0,2.1,1.1,2.1,1.9c0,0.4-0.1,0.7-0.3,0.9c-0.1,0.1-0.5,0.2-0.9,0.3C229.9,120.2,228.6,120.2,226.8,120.2 M237.5,121.5
	c0.1-0.2-0.1-0.2-0.1,0c-1,3.1-2.8,5-5.5,5c-3,0-5.1-1.9-5.1-4.9c0-0.4,0-0.8,0.1-1.1h6.6c1.5,0,1.7-0.3,1.7-0.9
	c0-1.3-1-2.9-4.1-2.9c-3.7,0-6.9,3.1-6.9,6.4c0,3.3,2.2,5.5,5.8,5.5c1.4,0,2.5-0.4,3.6-1.1C235.3,126.2,236.8,123.8,237.5,121.5
	 M270.6,182.1h5.5l0-0.5c-1.1-12.1-10.5-20.8-22.4-20.8c-10.2,0-21.3,7.1-22.6,20.8l0,0.5h5.5l0-0.4c1.1-9.2,8.2-15.9,17-15.9
	c8.8,0,15.9,6.7,17,15.9L270.6,182.1z M276,186.7l0-0.5h-5.5l0,0.4c-1,9.2-8.2,16-17,16c-8.8,0-16-6.7-17-16l0-0.4H231l0,0.5
	c1.3,13.7,12.3,20.9,22.6,20.9C265.5,207.6,274.9,198.8,276,186.7 M251.4,269.9h26.3v-4.9h-20.8v-34.5h20.8v-4.9h-26.3V269.9z
	 M261.1,250.2h13.3v-4.9h-13.3V250.2z M287.2,206.3h5.5V162h-5.5V206.3z M315.3,174.5c0-7-5.6-12.6-12.7-12.6h-5.8v4.9h5.6
	c5,0,7.3,3.9,7.3,7.6c0,3.1-1.6,5.7-4.2,6.7l-0.5,0.2l2.5,4.5l0.4-0.1C312.5,184,315.3,179.5,315.3,174.5 M312.1,207.4l4.5-3.2
	l-16.2-21.5l-4.5,3.2L312.1,207.4z M313.2,237.1l4.6-1.8l-0.1-0.4c-2.1-7.9-9.3-10.6-14.9-10.6c-9.7,0-14.1,6.5-14.1,12.6
	c0,4.7,3.1,10.2,10,11.8l1.7,0.4l1.3-5l-1.8-0.5c-4.3-1-5.8-4.3-5.8-6.9c0-5.2,4.5-7.6,8.7-7.6c3.9,0,8.6,2,10.2,7.5L313.2,237.1z
	 M318.2,257.6c0-6.2-3.8-10.7-10.2-12l-2.1-0.4l-1.3,5l1.6,0.3c4.3,0.9,6.7,3.5,6.7,7.3c0,5.7-5.1,8.3-9.8,8.3
	c-5.2,0-9.2-2.9-10.7-7.7l-0.1-0.5l-4.8,2l0.1,0.4c2.6,8,9.8,10.8,15.7,10.8C311.9,271,318.2,265.4,318.2,257.6 M325.3,308.7l0,0.5
	h5.5l0-0.4c1.1-9.2,8.2-15.9,17-15.9c8.8,0,15.9,6.7,17,15.9l0,0.4h5.5l0-0.5c-1.1-12.1-10.5-20.8-22.4-20.8
	C337.7,287.9,326.6,295,325.3,308.7 M370,177.4h-5.5v28.9h5.5V177.4z M342.1,224.3c-9.7,0-14.1,6.5-14.1,12.6
	c0,4.7,3.1,10.2,10,11.8l1.7,0.4l1.3-5l-1.8-0.5c-4.3-1-5.8-4.3-5.8-6.9c0-5.2,4.5-7.6,8.7-7.6c3.9,0,8.6,2,10.2,7.5l0.1,0.5
	l4.6-1.8L357,235C354.8,227.1,347.6,224.3,342.1,224.3 M328.1,206.3h5.5v-28.9h-5.5V206.3z M357.5,257.6c0-6.2-3.8-10.7-10.2-12
	l-2.1-0.4l-1.3,5l1.6,0.3c4.3,0.9,6.7,3.5,6.7,7.3c0,5.7-5.1,8.3-9.8,8.3c-5.2,0-9.2-2.9-10.7-7.7l-0.1-0.5l-4.8,2l0.1,0.4
	c2.5,8,9.8,10.8,15.7,10.8C351.2,271,357.5,265.4,357.5,257.6 M371.1,164.4l0.3-0.4l-4.5-3.2l-17.8,25.2l-17.9-25.2l-4.5,3.2
	l22.4,31.3L371.1,164.4z M368.4,236.7h5.5v-11.2h-5.5V236.7z M368.4,269.9h5.5v-28.9h-5.5V269.9z M405.4,329.1h-25.7v4.9h25.7V329.1
	z M380.3,299l0,0.4l4.7,1.5l0.1-0.5c0.6-4.3,4.1-7.6,8.3-7.6c4.2,0,7.3,3.1,7.3,7.4c0,2-0.7,4-2,5.6l-14.1,17.4l4.4,3.4l14.1-17.5v0
	c2-2.6,3.1-5.5,3.1-8.6c0-7.2-5.6-12.6-13-12.6C386.6,287.9,381.2,292.4,380.3,299 M399.2,173.2l-5.2-1.9L380.5,205l-0.2,0.4
	l5.2,1.9l5.2-13H405v-4.9h-12.3L399.2,173.2z M415.6,207.3l5.2-1.9l-17.9-44.2l-5.2,1.8L415.6,207.3z M430.1,245.6l0-0.5
	c-1.1-12.1-10.5-20.8-22.4-20.8c-10.2,0-21.3,7.1-22.6,20.8l0,0.5h5.5l0-0.4c1.1-9.2,8.2-15.9,17-15.9c8.8,0,15.9,6.7,17,15.9l0,0.4
	H430.1z M459,191.9h5.5V162H459V191.9z M460.6,207.5l4.4-2.9l-30.5-43.8l-4.5,2.9L460.6,207.5z M469.9,255.4h5.5v-29.9h-5.5V255.4z
	 M471.5,271.1l4.4-2.9l-30.5-43.8l-4.5,2.9L471.5,271.1z M477.5,206.3h5.5V162h-5.5V206.3z M514.7,184.2c0-10.8-7.5-22.2-21.4-22.2
	h-6.1v4.9h5.5c10.7,0,16.4,8.9,16.4,17.2c0,8.4-5.8,17.2-16.4,17.2h-5.5v4.9h6.1C507.2,206.3,514.7,194.9,514.7,184.2 M517.1,255.4
	h5.5v-29.9h-5.5V255.4z M518.7,271.1l4.4-2.9l-30.3-43.5l-0.2-0.3l-4.5,2.9L518.7,271.1z M531.3,177.4h-5.5v28.9h5.5V177.4z
	 M525.8,173.2h5.5v-8.5l-5.5-1.7V173.2z M535.6,236.7h5.5v-11.2h-5.5V236.7z M535.6,269.9h5.5v-28.9h-5.5V269.9z M553.6,186.6H567
	v-4.9h-13.3V186.6z M544,206.3h26.3v-4.9h-20.8v-31l-5.5-1.7V206.3z M577.2,237.1l4.6-1.8l-0.1-0.4c-2.1-7.9-9.3-10.6-14.9-10.6
	c-9.7,0-14.1,6.5-14.1,12.6c0,4.7,3.1,10.2,10,11.8l1.7,0.4l1.3-5l-1.8-0.5c-4.3-1-5.8-4.3-5.8-6.9c0-5.2,4.5-7.6,8.7-7.6
	c3.9,0,8.6,2,10.2,7.5L577.2,237.1z M582.2,257.6c0-6.2-3.8-10.7-10.2-12l-2.1-0.4l-1.3,5l1.6,0.3c4.3,0.9,6.7,3.5,6.7,7.3
	c0,5.7-5.1,8.3-9.8,8.3c-5.2,0-9.2-2.9-10.7-7.7l-0.1-0.5l-4.8,2l0.1,0.4c2.5,8,9.8,10.8,15.7,10.8
	C575.9,271,582.2,265.4,582.2,257.6 M590.1,230.4h32.5v-4.9h-32.5V230.4z M658.5,230.4v-4.9h-26.3v44.3l15.8-4.9h-10.3v-34.5H658.5z
	 M641.9,250.2h13.3v-4.9h-13.3V250.2z"/>
</svg>
