<?xml version="1.0" encoding="utf-8"?>
<!-- Generator: Adobe Illustrator 28.0.0, SVG Export Plug-In . SVG Version: 6.00 Build 0)  -->
<svg version="1.1" id="Calque_1" xmlns="http://www.w3.org/2000/svg" xmlns:xlink="http://www.w3.org/1999/xlink" x="0px" y="0px"
	 viewBox="0 0 1500 466.1" style="enable-background:new 0 0 1500 466.1;" xml:space="preserve">
<style type="text/css">
	.st0{fill:url(#SVGID_1_);}
	.st1{fill:none;}
	.st2{fill:#B7E4FF;}
	.st3{font-family:'Poppins-Regular';}
	.st4{font-size:25px;}
	.st5{font-family:'Poppins-Light';}
	.st6{font-family:'Poppins-Medium';}
	.st7{font-size:75px;}
</style>
<g id="Calque_1_00000083059581476509260740000009916735799011153330_">
	<g id="Calque_2_00000088094103214130321350000014125516600316586397_">
		
			<linearGradient id="SVGID_1_" gradientUnits="userSpaceOnUse" x1="0" y1="265.05" x2="1500" y2="265.05" gradientTransform="matrix(1 0 0 1 0 -32)">
			<stop  offset="0" style="stop-color:#E52D0F"/>
			<stop  offset="0.9838" style="stop-color:#EC69A4"/>
			<stop  offset="1" style="stop-color:#EC69A4"/>
		</linearGradient>
		<path class="st0" d="M0,0c500,0,1000,0.1,1500,0.1C1125.2,116.7,750.4,233.2,375.5,349.6C250.3,388.4,125.2,427.3,0,466.1
			C0,310.7,0,155.4,0,0z"/>
	</g>
</g>
<rect x="21.9" y="329.5" class="st1" width="242.4" height="88.2"/>
<text transform="matrix(1 0 0 1 41.858 312.5254)" class="st2 st3 st4">NORMANDIE </text>
<text transform="matrix(1 0 0 1 41.858 342.5254)" class="st2 st3 st4">IMPRESSIONNISTE </text>
<text transform="matrix(1 0 0 1 41.858 372.5254)" class="st2 st5 st4">2024</text>
<rect x="36.9" y="59.9" class="st1" width="428" height="71.3"/>
<text transform="matrix(1 0 0 1 41.1998 115.399)" class="st2 st6 st7">SELFIE</text>
<rect x="41.2" y="146.7" class="st1" width="716" height="70.9"/>
<text transform="matrix(1 0 0 1 41.2084 202.1498)" class="st2 st6 st7">IMPRESSIONNISTE</text>
</svg>
